HIERARCHY
ROOT Hips
{
	OFFSET -0.001795 -0.223333 0.028219
	CHANNELS 6 Xposition Yposition Zposition Zrotation Yrotation Xrotation 
	JOINT LeftUpLeg
	{
		OFFSET 0.069520 -0.091406 -0.006815
		CHANNELS 3 Zrotation Yrotation Xrotation
		JOINT LeftLeg
		{
			OFFSET 0.034277 -0.375199 -0.004496
			CHANNELS 3 Zrotation Yrotation Xrotation
			JOINT LeftFoot
			{
				OFFSET -0.013596 -0.397961 -0.043693
				CHANNELS 3 Zrotation Yrotation Xrotation
				JOINT LeftToe
				{
					OFFSET 0.026358 -0.055791 0.119288
					CHANNELS 3 Zrotation Yrotation Xrotation
					End Site
					{
						OFFSET 0.000000 0.000000 0.000000
					}
				}
			}
		}
	}
	JOINT RightUpLeg
	{
		OFFSET -0.067670 -0.090522 -0.004320
		CHANNELS 3 Zrotation Yrotation Xrotation
		JOINT RightLeg
		{
			OFFSET -0.038290 -0.382569 -0.008850
			CHANNELS 3 Zrotation Yrotation Xrotation
			JOINT RightFoot
			{
				OFFSET 0.015774 -0.398415 -0.042312
				CHANNELS 3 Zrotation Yrotation Xrotation
				JOINT RightToe
				{
					OFFSET -0.025372 -0.048144 0.123348
					CHANNELS 3 Zrotation Yrotation Xrotation
					End Site
					{
						OFFSET 0.000000 0.000000 0.000000
					}
				}
			}
		}
	}
	JOINT Spine
	{
		OFFSET -0.002533 0.108963 -0.026696
		CHANNELS 3 Zrotation Yrotation Xrotation
		JOINT Spine1
		{
			OFFSET 0.005487 0.135180 0.001092
			CHANNELS 3 Zrotation Yrotation Xrotation
			JOINT Spine2
			{
				OFFSET 0.001457 0.052922 0.025425
				CHANNELS 3 Zrotation Yrotation Xrotation
				JOINT Neck
				{
					OFFSET -0.002778 0.213870 -0.042857
					CHANNELS 3 Zrotation Yrotation Xrotation
					JOINT Head
					{
						OFFSET 0.005152 0.064970 0.051349
						CHANNELS 3 Zrotation Yrotation Xrotation
						End Site
						{
							OFFSET 0.000000 0.000000 0.000000
						}
					}
				}
				JOINT LeftShoulder
				{
					OFFSET 0.078845 0.121749 -0.034090
					CHANNELS 3 Zrotation Yrotation Xrotation
					JOINT LeftArm
					{
						OFFSET 0.090977 0.030469 -0.008868
						CHANNELS 3 Zrotation Yrotation Xrotation
						JOINT LeftForeArm
						{
							OFFSET 0.259612 -0.012772 -0.027456
							CHANNELS 3 Zrotation Yrotation Xrotation
							JOINT LeftHand
							{
								OFFSET 0.249234 0.008986 -0.001171
								CHANNELS 3 Zrotation Yrotation Xrotation
								End Site
								{
									OFFSET 0.000000 0.000000 0.000000
								}
							}
						}
					}
				}
				JOINT RightShoulder
				{
					OFFSET -0.081759 0.118833 -0.038615
					CHANNELS 3 Zrotation Yrotation Xrotation
					JOINT RightArm
					{
						OFFSET -0.096012 0.032551 -0.009143
						CHANNELS 3 Zrotation Yrotation Xrotation
						JOINT RightForeArm
						{
							OFFSET -0.253742 -0.013329 -0.021401
							CHANNELS 3 Zrotation Yrotation Xrotation
							JOINT RightHand
							{
								OFFSET -0.255298 0.007772 -0.005559
								CHANNELS 3 Zrotation Yrotation Xrotation
								End Site
								{
									OFFSET 0.000000 0.000000 0.000000
								}
							}
						}
					}
				}
			}
		}
	}
}
MOTION
Frames: 7
Frame Time: 0.050000
0.000000 0.955852 0.000000 -1.905890 12.472191 -3.296009 5.455616 -0.026089 7.776235 -2.703771 0.247173 -2.547330 -1.083444 4.491072 12.351865 0.000000 0.000000 0.000000 -2.135426 -0.149768 1.319071 1.544314 -0.155375 3.582347 -3.922830 -11.085548 14.275763 0.000000 0.000000 0.000000 0.292179 -0.802476 13.880899 2.507385 0.301169 -25.544693 -0.481457 0.062317 27.644128 3.644529 0.111890 -21.004492 0.000000 0.000000 0.000000 -22.145986 4.337324 -6.086911 -29.696539 0.631525 -4.527936 -58.343354 -32.969366 18.763206 0.000000 0.000000 0.000000 11.120076 -1.548234 -0.116420 34.904547 -11.736803 -8.168933 74.029749 37.379147 32.391519 0.000000 0.000000 0.000000 
0.000662 0.954091 0.002792 -1.737445 12.100204 -3.065070 4.593449 0.080799 7.982642 -1.595180 0.188459 -2.819489 -0.716085 4.812719 11.844492 0.000000 0.000000 0.000000 -2.009892 -0.074199 0.545060 1.795059 -0.184751 5.105513 -4.879433 -12.867207 12.712290 0.000000 0.000000 0.000000 0.146847 -0.868456 15.050860 1.720233 0.496033 -26.771972 -0.016728 -1.313827 27.160328 2.974869 0.191351 -20.352227 0.000000 0.000000 0.000000 -21.070805 5.711117 -6.133774 -30.320800 1.147015 -4.879486 -59.477851 -33.168256 19.626585 0.000000 0.000000 0.000000 10.277476 -1.323293 -0.235099 32.854075 -14.065878 -8.116358 79.008179 35.598043 32.732289 0.000000 0.000000 0.000000 
0.001284 0.953358 0.005128 -1.727071 10.645374 -3.434500 4.548556 0.143719 8.714512 -1.846014 0.208888 -2.685309 0.007101 5.759802 11.764777 0.000000 0.000000 0.000000 -1.491443 -0.007588 -0.080676 1.799168 -0.163567 6.415185 -6.008041 -15.174136 12.829607 0.000000 0.000000 0.000000 -0.074145 -0.892619 16.150839 2.642375 0.296657 -28.474161 -0.193575 0.135868 29.027161 2.953688 0.516838 -22.451514 0.000000 0.000000 0.000000 -22.383325 5.856057 -6.611444 -28.797379 -1.263425 -4.206410 -62.845379 -32.067898 20.021232 0.000000 0.000000 0.000000 11.010725 -3.085415 -0.962953 32.037975 -14.697242 -8.190693 80.588086 36.702349 34.797970 0.000000 0.000000 0.000000 
0.002173 0.952591 0.006726 -1.663212 7.515411 -3.793425 3.770438 0.363701 10.228462 -1.387880 0.197400 -3.025935 1.458576 7.450275 10.911486 0.000000 0.000000 0.000000 -1.892438 0.127356 -1.527241 2.245270 -0.196177 8.961278 -5.168832 -13.913609 12.345715 0.000000 0.000000 0.000000 -0.512575 -0.848456 17.513216 4.220911 -0.099197 -28.151132 -0.889666 -0.289419 29.367884 3.521133 -0.139749 -23.744671 0.000000 0.000000 0.000000 -23.956685 7.449942 -7.175598 -28.400215 -1.313547 -4.322831 -63.095222 -30.601927 19.648851 0.000000 0.000000 0.000000 10.688334 -2.029388 -0.767393 30.165905 -12.884526 -7.318690 83.000911 36.986794 35.296780 0.000000 0.000000 0.000000 
0.001789 0.953626 0.007693 -1.720998 4.039205 -4.805722 3.816986 0.513855 11.283376 -2.220523 0.254060 -1.730468 3.088350 9.844575 11.183063 0.000000 0.000000 0.000000 -1.853300 0.319201 -3.701494 3.118643 -0.302353 13.204200 -5.487831 -14.964341 13.816559 0.000000 0.000000 0.000000 -1.261050 -0.733223 19.395976 6.372534 -0.679605 -27.342182 -1.606947 1.128191 28.727074 4.844479 -1.019469 -24.301524 0.000000 0.000000 0.000000 -24.380823 6.192593 -6.236125 -27.545761 -1.104183 -4.270891 -65.405693 -31.649088 21.422145 0.000000 0.000000 0.000000 11.172323 -2.233880 -0.999271 28.890284 -11.217770 -6.642984 83.870701 38.058087 36.406733 0.000000 0.000000 0.000000 
-0.000319 0.954896 0.009465 -2.176295 -0.291507 -5.243035 3.761197 0.713985 12.253141 -2.174245 0.263108 -1.327908 5.105795 12.950936 12.373291 0.000000 0.000000 0.000000 -3.036117 0.600365 -7.681409 5.776472 -0.815290 17.665550 -4.022875 -13.804342 20.558366 0.000000 0.000000 0.000000 -1.240183 -0.640359 20.797509 7.369131 -1.053260 -26.390471 -1.360102 0.511348 28.718308 3.938406 -0.838952 -25.544705 0.000000 0.000000 0.000000 -25.234089 5.688126 -5.026332 -26.506757 -0.805396 -4.424559 -67.975393 -32.072261 23.434934 0.000000 0.000000 0.000000 9.770256 -1.738681 -1.118185 28.296433 -9.805921 -6.120074 85.726023 38.206726 36.206954 0.000000 0.000000 0.000000 
-0.005246 0.955000 0.013850 -2.539535 -4.251974 -4.891338 3.528640 0.913248 12.891713 -1.948965 0.258838 -1.561461 7.371784 16.325786 13.557532 0.000000 0.000000 0.000000 -4.862467 0.779567 -11.293768 8.495894 -1.285140 17.456476 -3.380311 -14.831852 30.861034 0.000000 0.000000 0.000000 -1.120833 -0.518984 21.424107 9.594056 -1.722535 -25.374011 -2.739489 0.279744 27.963882 3.548663 -0.908704 -26.392070 0.000000 0.000000 0.000000 -24.827981 5.543814 -4.077888 -26.548657 -0.180717 -4.712177 -71.612264 -32.526694 26.023802 0.000000 0.000000 0.000000 9.232050 -1.262596 -1.179724 27.710402 -8.831543 -5.657338 85.531203 37.548054 34.172033 0.000000 0.000000 0.000000 
